<svg width="112.795" height="40.13" viewBox="0 0 112.795 40.13" xmlns="http://www.w3.org/2000/svg"><g id="svgGroup" stroke-linecap="round" fill-rule="evenodd" font-size="9pt" stroke="#000000" stroke-width="0.25mm" fill="#000000" style="stroke:#000000;stroke-width:0.25mm;fill:#000000"><path d="M 4.218 25.309 Q 1.786 25.309 0.893 24.435 Q 0 23.561 0 22.497 Q 0 21.509 0.494 20.692 Q 0.988 19.875 1.482 19.723 Q 1.824 19.115 2.223 18.393 Q 2.622 17.671 2.964 16.987 Q 3.648 15.619 4.37 14.384 Q 5.092 13.149 5.947 12.389 Q 6.802 11.629 7.752 11.629 Q 8.208 11.629 8.702 11.819 Q 9.196 12.047 9.196 12.275 Q 9.196 12.427 9.044 12.503 A 0.484 0.484 0 0 1 8.825 12.554 A 0.624 0.624 0 0 1 8.702 12.541 Q 8.018 12.351 7.448 12.921 Q 6.878 13.491 6.878 14.479 Q 6.878 14.631 6.897 14.802 Q 6.916 14.973 6.954 15.163 Q 7.182 16.075 7.429 17.253 Q 7.676 18.431 7.676 19.647 Q 7.676 20.103 7.638 20.559 Q 7.6 21.015 7.448 21.433 Q 6.954 22.839 6.099 23.656 Q 5.244 24.473 4.028 24.853 A 6.794 6.794 0 0 0 4.311 24.859 A 8.051 8.051 0 0 0 5.947 24.682 Q 6.954 24.473 7.676 24.055 Q 8.93 23.333 9.899 22.079 Q 10.868 20.825 11.628 19.438 A 256.093 256.093 0 0 0 12.665 17.53 A 155.508 155.508 0 0 1 14.06 13.415 Q 15.124 10.413 16.397 7.658 Q 17.67 4.903 19.266 2.699 Q 20.254 1.369 21.261 0.685 Q 22.268 0.001 23.066 0.001 Q 23.674 0.001 24.035 0.4 Q 24.396 0.799 24.396 1.597 Q 24.396 2.205 24.13 3.098 Q 23.864 3.991 23.218 5.093 Q 22.458 6.461 21.413 7.905 Q 20.368 9.349 19.247 10.641 Q 18.126 11.933 17.119 12.864 Q 16.112 13.795 15.428 14.137 Q 15.314 14.403 15.01 15.277 Q 14.706 16.151 14.383 17.234 Q 14.06 18.317 13.756 19.305 Q 14.478 17.937 15.447 16.588 Q 16.416 15.239 17.442 14.346 Q 18.468 13.453 19.304 13.453 Q 20.71 13.453 20.71 14.707 Q 20.71 15.467 20.292 16.645 Q 19.874 17.823 19.228 19.381 Q 18.544 20.977 18.221 22.06 Q 17.898 23.143 17.898 23.751 Q 17.898 24.473 18.392 24.473 Q 18.924 24.473 20.102 23.485 Q 21.204 22.497 22.154 20.996 Q 23.104 19.495 24.434 16.911 A 0.213 0.213 0 0 1 24.513 16.848 A 12.271 12.271 0 0 1 24.947 16.17 Q 25.726 15.011 26.828 14.175 Q 27.93 13.339 29.222 13.339 Q 30.286 13.339 30.704 13.928 Q 31.122 14.517 31.122 15.391 L 31.122 15.676 Q 31.122 15.809 31.084 15.999 Q 30.97 17.025 30.286 18.127 Q 29.602 19.229 28.576 19.97 Q 27.55 20.711 26.372 20.711 Q 25.688 20.711 25.156 20.331 Q 24.814 21.623 24.814 22.687 Q 24.814 23.561 25.137 24.131 Q 25.46 24.701 26.144 24.701 Q 26.942 24.701 28.063 23.998 Q 29.184 23.295 30.495 21.585 A 25.078 25.078 0 0 0 30.775 21.192 A 0.174 0.174 0 0 1 30.772 21.186 A 0.026 0.026 0 0 1 30.78 21.167 Q 31.426 20.141 32.015 19.115 Q 32.604 18.089 33.098 17.063 A 84.597 84.597 0 0 1 33.154 16.956 A 25.078 25.078 0 0 0 33.174 16.911 A 0.058 0.058 0 0 1 33.193 16.883 A 84.597 84.597 0 0 1 34.01 15.372 Q 34.504 14.479 35.15 13.871 Q 35.796 13.263 36.632 13.263 Q 37.012 13.263 37.506 13.453 Q 38.038 13.681 38.038 14.479 Q 38.038 14.897 37.886 15.505 Q 37.734 16.113 37.468 16.873 Q 38.456 15.467 39.558 14.46 Q 40.66 13.453 41.572 13.453 Q 43.016 13.453 43.016 14.821 Q 43.016 15.657 42.522 16.873 Q 42.37 17.291 41.971 18.184 Q 41.572 19.077 41.173 20.16 Q 40.774 21.243 40.47 22.231 Q 40.166 23.219 40.166 23.865 Q 40.166 24.549 40.584 24.549 Q 40.85 24.549 41.287 24.302 Q 41.724 24.055 42.332 23.485 A 12.012 12.012 0 0 0 43.97 21.628 A 0.264 0.264 0 0 1 43.959 21.603 A 0.025 0.025 0 0 1 43.966 21.585 A 17.293 17.293 0 0 0 44.371 21.028 A 12.012 12.012 0 0 0 44.403 20.977 A 56.465 56.465 0 0 0 46.028 18.187 A 77.378 77.378 0 0 0 46.664 16.949 Q 47.044 16.151 47.538 15.277 Q 48.032 14.403 48.678 13.833 A 2.356 2.356 0 0 1 50.198 13.187 Q 50.73 13.187 51.072 13.51 Q 51.414 13.833 51.414 14.479 Q 51.414 14.631 51.395 14.783 Q 51.376 14.935 51.338 15.125 Q 51.186 15.847 50.825 16.892 Q 50.464 17.937 49.856 19.381 A 19.914 19.914 0 0 0 48.599 23.075 A 3.763 3.763 0 0 0 48.526 23.751 Q 48.526 24.397 48.944 24.397 Q 49.514 24.397 50.654 23.371 Q 51.452 22.649 52.269 21.3 Q 53.086 19.951 53.808 18.431 Q 54.53 16.911 55.043 15.6 Q 55.556 14.289 55.746 13.643 Q 56.392 13.491 57.19 13.263 Q 57.988 13.035 58.596 12.769 Q 58.178 13.225 57.627 14.27 Q 57.076 15.315 56.582 16.474 Q 56.088 17.633 55.746 18.431 Q 55.214 19.761 54.853 20.844 Q 54.492 21.927 54.169 22.953 Q 53.846 23.979 53.39 25.233 Q 55.176 24.093 56.24 23.067 Q 57.304 22.041 58.102 20.787 A 46.571 46.571 0 0 0 58.821 19.599 A 15.437 15.437 0 0 1 59.318 18.355 Q 60.534 15.809 62.719 14.46 Q 64.904 13.111 67.222 13.111 L 67.849 13.111 Q 68.172 13.111 68.476 13.187 Q 69.236 13.301 69.236 13.377 Q 69.236 13.453 68.685 13.529 Q 68.134 13.605 67.868 13.605 Q 66.006 13.605 64.543 14.593 Q 63.08 15.581 62.054 17.101 Q 61.028 18.621 60.477 20.198 Q 59.926 21.775 59.926 22.915 A 2.463 2.463 0 0 0 60.173 24.093 Q 60.42 24.549 60.914 24.549 Q 61.446 24.549 62.13 23.827 Q 62.814 23.105 63.46 22.06 Q 64.106 21.015 64.638 20.008 Q 65.17 19.001 65.436 18.469 L 67.07 15.049 Q 67.716 14.897 68.381 14.688 Q 69.046 14.479 69.654 14.213 Q 69.008 15.315 68.419 16.531 Q 67.83 17.747 67.222 18.925 Q 66.766 19.799 66.329 20.977 Q 65.892 22.155 65.892 23.105 L 65.892 23.257 Q 65.892 23.561 65.968 23.922 Q 66.044 24.283 66.386 24.283 Q 66.804 24.283 67.45 23.77 Q 68.096 23.257 68.362 22.991 A 14.07 14.07 0 0 0 69.879 21.197 A 0.174 0.174 0 0 1 69.874 21.186 A 0.026 0.026 0 0 1 69.882 21.167 Q 70.528 20.141 71.117 19.115 Q 71.706 18.089 72.2 17.063 Q 72.618 16.265 73.112 15.372 Q 73.606 14.479 74.252 13.871 Q 74.898 13.263 75.734 13.263 Q 76.114 13.263 76.608 13.453 Q 77.14 13.681 77.14 14.479 Q 77.14 14.897 76.988 15.505 Q 76.836 16.113 76.57 16.873 Q 77.558 15.467 78.66 14.46 Q 79.762 13.453 80.674 13.453 Q 82.118 13.453 82.118 14.821 Q 82.118 15.657 81.624 16.873 Q 81.472 17.291 81.073 18.184 Q 80.674 19.077 80.275 20.16 Q 79.876 21.243 79.572 22.231 Q 79.268 23.219 79.268 23.865 Q 79.268 24.549 79.686 24.549 Q 79.952 24.549 80.389 24.302 Q 80.826 24.055 81.434 23.485 Q 82.536 22.497 83.505 20.977 A 56.465 56.465 0 0 0 84.457 19.387 A 12.416 12.416 0 0 1 84.892 18.355 Q 86.222 15.581 88.635 14.251 Q 91.048 12.921 93.594 13.111 Q 94.468 11.325 95.437 9.368 Q 96.406 7.411 97.261 5.644 Q 98.116 3.877 98.743 2.604 Q 99.37 1.331 99.56 0.913 Q 100.206 0.761 100.966 0.552 Q 101.726 0.343 102.334 0.077 Q 101.954 0.723 101.137 2.091 Q 100.32 3.459 99.275 5.302 Q 98.23 7.145 97.09 9.235 Q 95.95 11.325 94.886 13.453 L 94.886 13.529 Q 94.886 13.681 94.696 13.795 Q 93.746 15.733 92.967 17.519 Q 92.188 19.305 91.713 20.768 Q 91.238 22.231 91.238 23.181 Q 91.238 24.245 91.96 24.245 Q 92.378 24.245 92.91 23.903 Q 93.442 23.561 93.936 23.067 Q 95.152 21.851 96.045 20.331 A 72.887 72.887 0 0 0 97.027 18.608 A 41.918 41.918 0 0 0 97.85 16.949 Q 98.268 16.151 98.743 15.296 Q 99.218 14.441 99.864 13.852 Q 100.51 13.263 101.346 13.263 Q 102.752 13.263 102.752 14.365 Q 102.752 15.087 102.296 16.303 Q 101.84 17.519 101.08 19.381 Q 100.396 20.977 100.073 22.06 Q 99.75 23.143 99.75 23.751 Q 99.75 24.473 100.244 24.473 Q 100.776 24.473 101.954 23.485 Q 102.98 22.573 103.93 21.224 Q 104.88 19.875 105.982 17.557 Q 106.286 16.949 106.609 16.018 Q 106.932 15.087 107.179 14.365 L 107.426 13.643 Q 108.072 13.491 108.87 13.244 Q 109.668 12.997 110.276 12.731 Q 109.896 13.111 109.193 14.441 Q 108.49 15.771 107.749 17.462 Q 107.008 19.153 106.476 20.749 Q 105.83 22.573 105.83 23.675 Q 105.83 24.587 106.4 24.587 Q 106.666 24.587 107.065 24.359 Q 107.464 24.131 108.034 23.637 Q 108.528 23.219 108.965 22.649 Q 109.402 22.079 109.82 21.471 Q 110.39 20.635 111.017 19.533 Q 111.644 18.431 112.404 16.949 Q 112.48 16.835 112.518 16.835 Q 112.632 16.835 112.727 16.93 A 0.189 0.189 0 0 1 112.795 17.056 A 0.099 0.099 0 0 1 112.784 17.101 A 45.87 45.87 0 0 1 109.776 22.305 A 18.251 18.251 0 0 1 109.174 23.124 Q 107.616 25.119 105.792 25.119 A 1.156 1.156 0 0 1 104.747 24.625 Q 104.424 24.131 104.424 23.295 Q 104.424 22.649 104.576 21.851 Q 104.728 21.053 104.994 20.217 Q 103.588 22.649 102.296 23.884 Q 101.004 25.119 99.446 25.119 Q 97.964 25.119 97.964 23.523 A 9.67 9.67 0 0 1 99 19.961 A 26.704 26.704 0 0 1 99.142 19.647 Q 99.484 18.963 99.921 18.013 Q 100.358 17.063 100.681 16.17 Q 101.004 15.277 101.004 14.707 Q 101.004 14.175 100.624 14.175 A 1.236 1.236 0 0 0 99.712 14.745 Q 99.256 15.315 98.895 16.018 Q 98.534 16.721 98.306 17.139 Q 97.736 18.241 97.014 19.533 A 22.359 22.359 0 0 1 95.998 21.199 A 13.571 13.571 0 0 1 94.506 23.105 Q 93.936 23.713 93.043 24.397 Q 92.15 25.081 91.276 25.081 Q 90.402 25.081 90.079 24.397 Q 89.756 23.713 89.756 22.877 Q 89.756 22.345 89.832 21.851 Q 89.908 21.357 90.022 20.977 Q 89.756 21.661 89.091 22.649 Q 88.426 23.637 87.609 24.378 Q 86.792 25.119 85.994 25.119 Q 84.74 25.119 84.265 24.397 Q 83.79 23.675 83.79 22.649 A 8.145 8.145 0 0 1 83.96 21.074 A 57.578 57.578 0 0 1 83.657 21.566 Q 82.536 23.333 81.415 24.226 Q 80.294 25.119 78.926 25.119 Q 77.33 25.119 77.33 23.333 Q 77.33 22.649 77.596 21.699 Q 77.862 20.749 78.432 19.609 Q 78.736 18.963 79.249 18.07 Q 79.762 17.177 80.18 16.303 Q 80.598 15.429 80.598 14.935 Q 80.598 14.441 80.066 14.441 Q 79.344 14.441 78.565 15.22 Q 77.786 15.999 77.026 17.215 Q 76.266 18.431 75.582 19.761 Q 74.898 21.091 74.404 22.25 Q 73.91 23.409 73.682 24.017 Q 73.454 24.587 73.036 24.739 Q 72.618 24.891 72.143 24.891 Q 71.668 24.891 71.25 25.043 Q 71.782 23.827 72.124 23.067 Q 72.466 22.307 72.846 21.528 Q 73.226 20.749 73.758 19.419 Q 74.062 18.735 74.442 17.842 Q 74.822 16.949 75.107 16.094 Q 75.392 15.239 75.392 14.745 Q 75.392 14.175 75.012 14.175 A 1.236 1.236 0 0 0 74.1 14.745 Q 73.644 15.315 73.283 16.018 Q 72.922 16.721 72.694 17.139 Q 72.124 18.241 71.554 19.305 A 17.405 17.405 0 0 1 70.48 21.052 A 14.759 14.759 0 0 1 68.932 23.105 Q 68.324 23.713 67.45 24.397 Q 66.576 25.081 65.702 25.081 Q 64.866 25.081 64.524 24.416 Q 64.182 23.751 64.182 22.915 Q 64.182 22.383 64.277 21.87 Q 64.372 21.357 64.486 20.977 Q 64.22 21.661 63.555 22.649 Q 62.89 23.637 62.073 24.378 Q 61.256 25.119 60.458 25.119 Q 59.166 25.119 58.691 24.397 Q 58.216 23.675 58.216 22.611 A 7.771 7.771 0 0 1 58.38 21.108 A 15.654 15.654 0 0 1 57.323 22.554 Q 56.582 23.447 55.594 24.226 Q 54.606 25.005 53.162 25.879 Q 52.478 27.589 51.604 29.717 Q 50.73 31.845 49.742 33.878 Q 48.754 35.911 47.652 37.431 Q 46.702 38.761 45.657 39.445 Q 44.612 40.129 43.852 40.129 Q 43.244 40.129 42.883 39.73 Q 42.522 39.331 42.522 38.533 Q 42.522 37.887 42.807 37.013 Q 43.092 36.139 43.7 35.037 Q 44.46 33.669 45.486 32.225 Q 46.512 30.781 47.633 29.489 Q 48.754 28.197 49.78 27.247 Q 50.806 26.297 51.49 25.955 Q 51.642 25.575 51.927 24.739 Q 52.212 23.903 52.516 22.972 Q 52.82 22.041 53.048 21.395 L 53.276 20.749 L 52.668 21.661 Q 52.212 22.345 51.509 23.162 Q 50.806 23.979 49.97 24.549 Q 49.134 25.119 48.222 25.119 Q 46.74 25.119 46.74 23.523 A 9.67 9.67 0 0 1 47.776 19.961 A 26.704 26.704 0 0 1 47.918 19.647 Q 48.26 18.963 48.697 18.013 Q 49.134 17.063 49.457 16.17 Q 49.78 15.277 49.78 14.707 Q 49.78 14.175 49.4 14.175 Q 48.944 14.175 48.488 14.745 Q 48.032 15.315 47.671 16.018 Q 47.31 16.721 47.082 17.139 Q 46.512 18.241 45.79 19.552 A 21.418 21.418 0 0 1 44.618 21.465 A 57.578 57.578 0 0 1 44.555 21.566 Q 43.434 23.333 42.313 24.226 Q 41.192 25.119 39.824 25.119 Q 38.228 25.119 38.228 23.333 Q 38.228 22.649 38.494 21.699 Q 38.76 20.749 39.33 19.609 Q 39.634 18.963 40.147 18.07 Q 40.66 17.177 41.078 16.303 Q 41.496 15.429 41.496 14.935 Q 41.496 14.441 40.964 14.441 Q 40.242 14.441 39.463 15.22 Q 38.684 15.999 37.924 17.215 Q 37.164 18.431 36.48 19.761 Q 35.796 21.091 35.302 22.25 Q 34.808 23.409 34.58 24.017 Q 34.352 24.587 33.934 24.739 Q 33.516 24.891 33.041 24.891 Q 32.566 24.891 32.148 25.043 Q 32.68 23.827 33.022 23.067 Q 33.364 22.307 33.744 21.528 Q 34.124 20.749 34.656 19.419 Q 34.96 18.735 35.34 17.842 Q 35.72 16.949 36.005 16.094 Q 36.29 15.239 36.29 14.745 Q 36.29 14.175 35.91 14.175 Q 35.454 14.175 34.998 14.745 Q 34.542 15.315 34.181 16.018 Q 33.82 16.721 33.592 17.139 A 169.252 169.252 0 0 1 33.389 17.53 A 21.762 21.762 0 0 1 30.263 22.661 A 10.414 10.414 0 0 1 29.621 23.333 A 6.214 6.214 0 0 1 26.324 25.298 A 2.224 2.224 0 0 1 26.106 25.309 Q 24.472 25.309 23.788 24.188 Q 23.104 23.067 23.104 21.623 A 7.691 7.691 0 0 1 23.286 19.951 A 76.056 76.056 0 0 1 22.325 21.547 Q 21.204 23.333 20.102 24.226 Q 19 25.119 17.594 25.119 Q 15.998 25.119 15.998 23.333 Q 15.998 21.851 17.062 19.609 Q 17.404 18.963 17.917 18.07 Q 18.43 17.177 18.829 16.322 Q 19.228 15.467 19.228 14.973 Q 19.228 14.441 18.696 14.441 Q 18.012 14.441 17.214 15.22 Q 16.416 15.999 15.637 17.196 Q 14.858 18.393 14.193 19.723 Q 13.528 21.053 13.053 22.174 Q 12.578 23.295 12.388 23.903 Q 12.236 24.511 11.913 24.663 A 1.471 1.471 0 0 1 11.279 24.798 A 1.844 1.844 0 0 1 11.191 24.796 A 1.869 1.869 0 0 0 11.102 24.794 A 2.122 2.122 0 0 0 10.374 24.929 A 1198.816 1198.816 0 0 1 11.998 19.641 A 216.358 216.358 0 0 1 11.856 19.894 Q 11.058 21.319 10.07 22.516 Q 9.082 23.713 7.714 24.473 Q 6.232 25.309 4.218 25.309 Z M 3.23 17.481 L 2.09 19.533 Q 2.204 19.495 2.432 19.495 Q 3.04 19.495 3.211 19.837 Q 3.382 20.179 3.306 20.331 Q 3.192 20.293 3.097 20.274 Q 3.002 20.255 2.926 20.255 Q 2.28 20.255 1.805 20.787 Q 1.33 21.319 1.14 21.965 Q 1.064 22.231 1.026 22.478 A 2.913 2.913 0 0 0 0.988 22.915 A 1.649 1.649 0 0 0 1.482 24.245 Q 1.976 24.663 2.66 24.663 Q 3.42 24.663 4.218 24.169 Q 5.016 23.675 5.358 22.725 Q 5.776 21.547 5.871 20.084 Q 5.966 18.621 5.966 17.329 Q 5.966 16.037 6.004 15.353 Q 6.08 14.289 6.574 13.358 Q 7.068 12.427 8.246 12.237 Q 7.98 12.085 7.714 12.085 Q 7.068 12.085 6.384 12.655 Q 5.7 13.225 5.358 13.681 Q 4.826 14.403 4.332 15.391 Q 3.838 16.379 3.23 17.481 Z M 15.656 13.339 Q 16.72 12.693 18.031 11.268 Q 19.342 9.843 20.596 8.057 Q 21.85 6.271 22.648 4.675 Q 23.142 3.687 23.351 2.908 Q 23.56 2.129 23.56 1.559 Q 23.56 0.495 22.952 0.495 Q 22.496 0.495 21.793 1.179 Q 21.09 1.863 20.216 3.421 Q 19.494 4.713 18.753 6.252 Q 18.012 7.791 17.366 9.254 Q 16.72 10.717 16.264 11.819 Q 15.808 12.921 15.656 13.339 Z M 43.966 39.597 Q 44.422 39.597 45.125 38.913 Q 45.828 38.229 46.702 36.709 Q 47.424 35.417 48.165 33.878 Q 48.906 32.339 49.552 30.857 Q 50.198 29.375 50.654 28.273 Q 51.11 27.171 51.262 26.791 Q 50.464 27.247 49.514 28.197 Q 48.564 29.147 47.576 30.363 Q 46.588 31.579 45.714 32.909 Q 44.84 34.239 44.232 35.455 Q 43.32 37.317 43.32 38.533 Q 43.32 39.597 43.966 39.597 Z M 90.972 18.469 L 93.366 13.605 Q 91.504 13.643 90.041 14.631 Q 88.578 15.619 87.552 17.12 Q 86.526 18.621 85.994 20.179 Q 85.462 21.737 85.462 22.877 Q 85.462 23.637 85.709 24.093 Q 85.956 24.549 86.45 24.549 Q 86.982 24.549 87.647 23.827 Q 88.312 23.105 88.977 22.06 Q 89.642 21.015 90.174 20.008 Q 90.706 19.001 90.972 18.469 Z M 26.182 20.103 Q 27.018 20.103 27.816 19.476 Q 28.614 18.849 29.26 17.88 Q 29.906 16.911 30.286 15.923 Q 30.438 15.505 30.438 14.973 Q 30.438 14.479 30.267 14.118 Q 30.096 13.757 29.678 13.757 Q 28.994 13.757 28.196 14.612 Q 27.398 15.467 26.714 16.626 Q 26.03 17.785 25.688 18.735 Q 25.574 19.001 25.479 19.286 Q 25.384 19.571 25.308 19.875 Q 25.764 20.103 26.182 20.103 Z"/></g></svg>